<mxfile host="app.diagrams.net" modified="2022-03-11T01:55:33.061Z" agent="5.0 (Windows NT 10.0; Win64; x64) AppleWebKit/537.36 (KHTML, like Gecko) Chrome/99.0.4844.51 Safari/537.36" etag="bhofTKgxMdBnuyK8vc4z" version="16.6.5" type="github">
  <diagram id="R2lEEEUBdFMjLlhIrx00" name="Page-1">
    <mxGraphModel dx="2506" dy="2118" grid="1" gridSize="10" guides="1" tooltips="1" connect="1" arrows="1" fold="1" page="1" pageScale="1" pageWidth="850" pageHeight="1100" math="0" shadow="0" extFonts="Permanent Marker^https://fonts.googleapis.com/css?family=Permanent+Marker">
      <root>
        <mxCell id="0" />
        <mxCell id="1" parent="0" />
        <mxCell id="l1CA4P1b8geDP2vsZstU-13" style="edgeStyle=orthogonalEdgeStyle;rounded=0;orthogonalLoop=1;jettySize=auto;html=1;exitX=0.5;exitY=1;exitDx=0;exitDy=0;entryX=0.5;entryY=0;entryDx=0;entryDy=0;" edge="1" parent="1" source="l1CA4P1b8geDP2vsZstU-1" target="l1CA4P1b8geDP2vsZstU-9">
          <mxGeometry relative="1" as="geometry" />
        </mxCell>
        <mxCell id="l1CA4P1b8geDP2vsZstU-74" style="edgeStyle=none;rounded=0;orthogonalLoop=1;jettySize=auto;html=1;exitX=1;exitY=0.5;exitDx=0;exitDy=0;entryX=0;entryY=0.5;entryDx=0;entryDy=0;" edge="1" parent="1" source="l1CA4P1b8geDP2vsZstU-1" target="l1CA4P1b8geDP2vsZstU-70">
          <mxGeometry relative="1" as="geometry" />
        </mxCell>
        <mxCell id="l1CA4P1b8geDP2vsZstU-75" style="edgeStyle=none;rounded=0;orthogonalLoop=1;jettySize=auto;html=1;exitX=1;exitY=0.75;exitDx=0;exitDy=0;" edge="1" parent="1" source="l1CA4P1b8geDP2vsZstU-1" target="l1CA4P1b8geDP2vsZstU-71">
          <mxGeometry relative="1" as="geometry" />
        </mxCell>
        <mxCell id="l1CA4P1b8geDP2vsZstU-77" style="edgeStyle=none;rounded=0;orthogonalLoop=1;jettySize=auto;html=1;exitX=1;exitY=1;exitDx=0;exitDy=0;entryX=0;entryY=0;entryDx=0;entryDy=0;" edge="1" parent="1" source="l1CA4P1b8geDP2vsZstU-1" target="l1CA4P1b8geDP2vsZstU-76">
          <mxGeometry relative="1" as="geometry" />
        </mxCell>
        <mxCell id="l1CA4P1b8geDP2vsZstU-90" style="edgeStyle=orthogonalEdgeStyle;rounded=0;orthogonalLoop=1;jettySize=auto;html=1;exitX=0.25;exitY=1;exitDx=0;exitDy=0;entryX=0.5;entryY=1;entryDx=0;entryDy=0;" edge="1" parent="1" source="l1CA4P1b8geDP2vsZstU-1" target="l1CA4P1b8geDP2vsZstU-10">
          <mxGeometry relative="1" as="geometry" />
        </mxCell>
        <mxCell id="l1CA4P1b8geDP2vsZstU-1" value="Users" style="whiteSpace=wrap;html=1;align=center;fillColor=#fff2cc;strokeColor=#d6b656;" vertex="1" parent="1">
          <mxGeometry x="210" y="280" width="80" height="40" as="geometry" />
        </mxCell>
        <mxCell id="l1CA4P1b8geDP2vsZstU-82" style="edgeStyle=none;rounded=0;orthogonalLoop=1;jettySize=auto;html=1;exitX=0.25;exitY=1;exitDx=0;exitDy=0;entryX=0.5;entryY=0;entryDx=0;entryDy=0;" edge="1" parent="1" source="l1CA4P1b8geDP2vsZstU-2" target="l1CA4P1b8geDP2vsZstU-79">
          <mxGeometry relative="1" as="geometry" />
        </mxCell>
        <mxCell id="l1CA4P1b8geDP2vsZstU-83" style="edgeStyle=none;rounded=0;orthogonalLoop=1;jettySize=auto;html=1;exitX=0.5;exitY=1;exitDx=0;exitDy=0;entryX=0.455;entryY=-0.004;entryDx=0;entryDy=0;entryPerimeter=0;" edge="1" parent="1" source="l1CA4P1b8geDP2vsZstU-2" target="l1CA4P1b8geDP2vsZstU-80">
          <mxGeometry relative="1" as="geometry" />
        </mxCell>
        <mxCell id="l1CA4P1b8geDP2vsZstU-84" style="edgeStyle=none;rounded=0;orthogonalLoop=1;jettySize=auto;html=1;exitX=0.75;exitY=1;exitDx=0;exitDy=0;entryX=0.392;entryY=-0.05;entryDx=0;entryDy=0;entryPerimeter=0;" edge="1" parent="1" source="l1CA4P1b8geDP2vsZstU-2" target="l1CA4P1b8geDP2vsZstU-81">
          <mxGeometry relative="1" as="geometry" />
        </mxCell>
        <mxCell id="l1CA4P1b8geDP2vsZstU-2" value="Administrators" style="whiteSpace=wrap;html=1;align=center;fillColor=#fff2cc;strokeColor=#d6b656;" vertex="1" parent="1">
          <mxGeometry x="40" y="410" width="100" height="40" as="geometry" />
        </mxCell>
        <mxCell id="l1CA4P1b8geDP2vsZstU-3" style="edgeStyle=orthogonalEdgeStyle;rounded=0;orthogonalLoop=1;jettySize=auto;html=1;exitX=0.5;exitY=1;exitDx=0;exitDy=0;" edge="1" parent="1" source="l1CA4P1b8geDP2vsZstU-1" target="l1CA4P1b8geDP2vsZstU-1">
          <mxGeometry relative="1" as="geometry" />
        </mxCell>
        <mxCell id="l1CA4P1b8geDP2vsZstU-18" style="edgeStyle=orthogonalEdgeStyle;rounded=0;orthogonalLoop=1;jettySize=auto;html=1;entryX=0;entryY=0.5;entryDx=0;entryDy=0;exitX=0;exitY=0.25;exitDx=0;exitDy=0;" edge="1" parent="1" source="l1CA4P1b8geDP2vsZstU-4" target="l1CA4P1b8geDP2vsZstU-16">
          <mxGeometry relative="1" as="geometry">
            <mxPoint x="70" y="210" as="sourcePoint" />
            <Array as="points">
              <mxPoint x="20" y="200" />
              <mxPoint x="20" y="120" />
            </Array>
          </mxGeometry>
        </mxCell>
        <mxCell id="l1CA4P1b8geDP2vsZstU-29" style="edgeStyle=orthogonalEdgeStyle;rounded=0;orthogonalLoop=1;jettySize=auto;html=1;exitX=0;exitY=0.75;exitDx=0;exitDy=0;entryX=1;entryY=0.5;entryDx=0;entryDy=0;" edge="1" parent="1" source="l1CA4P1b8geDP2vsZstU-4" target="l1CA4P1b8geDP2vsZstU-28">
          <mxGeometry relative="1" as="geometry">
            <Array as="points">
              <mxPoint x="80" y="220" />
              <mxPoint x="80" y="250" />
              <mxPoint x="-10" y="250" />
              <mxPoint x="-10" y="180" />
            </Array>
          </mxGeometry>
        </mxCell>
        <mxCell id="l1CA4P1b8geDP2vsZstU-95" style="edgeStyle=none;rounded=0;orthogonalLoop=1;jettySize=auto;html=1;entryX=0.037;entryY=0.648;entryDx=0;entryDy=0;entryPerimeter=0;" edge="1" parent="1" source="l1CA4P1b8geDP2vsZstU-4" target="l1CA4P1b8geDP2vsZstU-92">
          <mxGeometry relative="1" as="geometry" />
        </mxCell>
        <mxCell id="l1CA4P1b8geDP2vsZstU-96" style="edgeStyle=none;rounded=0;orthogonalLoop=1;jettySize=auto;html=1;exitX=1;exitY=0.5;exitDx=0;exitDy=0;" edge="1" parent="1" source="l1CA4P1b8geDP2vsZstU-4" target="l1CA4P1b8geDP2vsZstU-94">
          <mxGeometry relative="1" as="geometry" />
        </mxCell>
        <mxCell id="l1CA4P1b8geDP2vsZstU-97" style="edgeStyle=none;rounded=0;orthogonalLoop=1;jettySize=auto;html=1;exitX=1;exitY=0.75;exitDx=0;exitDy=0;entryX=0;entryY=0.5;entryDx=0;entryDy=0;" edge="1" parent="1" source="l1CA4P1b8geDP2vsZstU-4" target="l1CA4P1b8geDP2vsZstU-93">
          <mxGeometry relative="1" as="geometry" />
        </mxCell>
        <mxCell id="l1CA4P1b8geDP2vsZstU-4" value="Observers" style="whiteSpace=wrap;html=1;align=center;fillColor=#fff2cc;strokeColor=#d6b656;" vertex="1" parent="1">
          <mxGeometry x="100" y="190" width="100" height="40" as="geometry" />
        </mxCell>
        <mxCell id="l1CA4P1b8geDP2vsZstU-101" style="edgeStyle=none;rounded=0;orthogonalLoop=1;jettySize=auto;html=1;exitX=0.5;exitY=0;exitDx=0;exitDy=0;entryX=0.5;entryY=1;entryDx=0;entryDy=0;" edge="1" parent="1" source="l1CA4P1b8geDP2vsZstU-5" target="l1CA4P1b8geDP2vsZstU-98">
          <mxGeometry relative="1" as="geometry" />
        </mxCell>
        <mxCell id="l1CA4P1b8geDP2vsZstU-102" style="edgeStyle=none;rounded=0;orthogonalLoop=1;jettySize=auto;html=1;exitX=1;exitY=0.5;exitDx=0;exitDy=0;entryX=0;entryY=1;entryDx=0;entryDy=0;" edge="1" parent="1" source="l1CA4P1b8geDP2vsZstU-5" target="l1CA4P1b8geDP2vsZstU-99">
          <mxGeometry relative="1" as="geometry" />
        </mxCell>
        <mxCell id="l1CA4P1b8geDP2vsZstU-5" value="Units" style="whiteSpace=wrap;html=1;align=center;fillColor=#fff2cc;strokeColor=#d6b656;" vertex="1" parent="1">
          <mxGeometry x="209" y="44" width="78" height="46" as="geometry" />
        </mxCell>
        <mxCell id="l1CA4P1b8geDP2vsZstU-147" style="edgeStyle=none;rounded=0;orthogonalLoop=1;jettySize=auto;html=1;exitX=0;exitY=0.5;exitDx=0;exitDy=0;entryX=1;entryY=0.5;entryDx=0;entryDy=0;" edge="1" parent="1" source="l1CA4P1b8geDP2vsZstU-6" target="l1CA4P1b8geDP2vsZstU-144">
          <mxGeometry relative="1" as="geometry" />
        </mxCell>
        <mxCell id="l1CA4P1b8geDP2vsZstU-148" style="edgeStyle=none;rounded=0;orthogonalLoop=1;jettySize=auto;html=1;exitX=0.5;exitY=1;exitDx=0;exitDy=0;entryX=1;entryY=0.5;entryDx=0;entryDy=0;" edge="1" parent="1" source="l1CA4P1b8geDP2vsZstU-6" target="l1CA4P1b8geDP2vsZstU-146">
          <mxGeometry relative="1" as="geometry" />
        </mxCell>
        <mxCell id="l1CA4P1b8geDP2vsZstU-6" value="Rivers" style="whiteSpace=wrap;html=1;align=center;fillColor=#fff2cc;strokeColor=#d6b656;" vertex="1" parent="1">
          <mxGeometry x="-270" y="-200" width="100" height="40" as="geometry" />
        </mxCell>
        <mxCell id="l1CA4P1b8geDP2vsZstU-151" style="edgeStyle=none;rounded=0;orthogonalLoop=1;jettySize=auto;html=1;exitX=1;exitY=0.5;exitDx=0;exitDy=0;entryX=0;entryY=0.5;entryDx=0;entryDy=0;" edge="1" parent="1" source="l1CA4P1b8geDP2vsZstU-7" target="l1CA4P1b8geDP2vsZstU-149">
          <mxGeometry relative="1" as="geometry" />
        </mxCell>
        <mxCell id="l1CA4P1b8geDP2vsZstU-152" style="edgeStyle=none;rounded=0;orthogonalLoop=1;jettySize=auto;html=1;exitX=1;exitY=1;exitDx=0;exitDy=0;entryX=0;entryY=0.5;entryDx=0;entryDy=0;" edge="1" parent="1" source="l1CA4P1b8geDP2vsZstU-7" target="l1CA4P1b8geDP2vsZstU-150">
          <mxGeometry relative="1" as="geometry" />
        </mxCell>
        <mxCell id="l1CA4P1b8geDP2vsZstU-7" value="Creeks" style="whiteSpace=wrap;html=1;align=center;fillColor=#fff2cc;strokeColor=#d6b656;" vertex="1" parent="1">
          <mxGeometry x="-60" y="-230" width="100" height="40" as="geometry" />
        </mxCell>
        <mxCell id="l1CA4P1b8geDP2vsZstU-138" style="edgeStyle=none;rounded=0;orthogonalLoop=1;jettySize=auto;html=1;exitX=0.25;exitY=1;exitDx=0;exitDy=0;entryX=0.5;entryY=0;entryDx=0;entryDy=0;" edge="1" parent="1" source="l1CA4P1b8geDP2vsZstU-8" target="l1CA4P1b8geDP2vsZstU-137">
          <mxGeometry relative="1" as="geometry" />
        </mxCell>
        <mxCell id="l1CA4P1b8geDP2vsZstU-139" style="edgeStyle=none;rounded=0;orthogonalLoop=1;jettySize=auto;html=1;exitX=0;exitY=0.5;exitDx=0;exitDy=0;entryX=0.5;entryY=0;entryDx=0;entryDy=0;" edge="1" parent="1" source="l1CA4P1b8geDP2vsZstU-8" target="l1CA4P1b8geDP2vsZstU-136">
          <mxGeometry relative="1" as="geometry" />
        </mxCell>
        <mxCell id="l1CA4P1b8geDP2vsZstU-8" value="Drains" style="whiteSpace=wrap;html=1;align=center;fillColor=#fff2cc;strokeColor=#d6b656;" vertex="1" parent="1">
          <mxGeometry x="-580" y="300" width="100" height="40" as="geometry" />
        </mxCell>
        <mxCell id="l1CA4P1b8geDP2vsZstU-15" style="edgeStyle=orthogonalEdgeStyle;rounded=0;orthogonalLoop=1;jettySize=auto;html=1;exitX=0.5;exitY=1;exitDx=0;exitDy=0;entryX=1;entryY=0.5;entryDx=0;entryDy=0;" edge="1" parent="1" source="l1CA4P1b8geDP2vsZstU-9" target="l1CA4P1b8geDP2vsZstU-2">
          <mxGeometry relative="1" as="geometry" />
        </mxCell>
        <mxCell id="l1CA4P1b8geDP2vsZstU-9" value="Have" style="shape=rhombus;perimeter=rhombusPerimeter;whiteSpace=wrap;html=1;align=center;fillColor=#f8cecc;strokeColor=#b85450;" vertex="1" parent="1">
          <mxGeometry x="190" y="370" width="120" height="60" as="geometry" />
        </mxCell>
        <mxCell id="l1CA4P1b8geDP2vsZstU-91" style="edgeStyle=orthogonalEdgeStyle;rounded=0;orthogonalLoop=1;jettySize=auto;html=1;exitX=0.5;exitY=0;exitDx=0;exitDy=0;entryX=0.5;entryY=1;entryDx=0;entryDy=0;" edge="1" parent="1" source="l1CA4P1b8geDP2vsZstU-10" target="l1CA4P1b8geDP2vsZstU-4">
          <mxGeometry relative="1" as="geometry" />
        </mxCell>
        <mxCell id="l1CA4P1b8geDP2vsZstU-10" value="Have" style="shape=rhombus;perimeter=rhombusPerimeter;whiteSpace=wrap;html=1;align=center;fillColor=#f8cecc;strokeColor=#b85450;" vertex="1" parent="1">
          <mxGeometry x="50" y="280" width="100" height="50" as="geometry" />
        </mxCell>
        <mxCell id="l1CA4P1b8geDP2vsZstU-21" style="edgeStyle=orthogonalEdgeStyle;rounded=0;orthogonalLoop=1;jettySize=auto;html=1;exitX=1;exitY=0.5;exitDx=0;exitDy=0;entryX=0;entryY=0.5;entryDx=0;entryDy=0;" edge="1" parent="1" source="l1CA4P1b8geDP2vsZstU-16" target="l1CA4P1b8geDP2vsZstU-5">
          <mxGeometry relative="1" as="geometry" />
        </mxCell>
        <mxCell id="l1CA4P1b8geDP2vsZstU-16" value="Have" style="shape=rhombus;perimeter=rhombusPerimeter;whiteSpace=wrap;html=1;align=center;fillColor=#f8cecc;strokeColor=#b85450;" vertex="1" parent="1">
          <mxGeometry x="40" y="90" width="120" height="60" as="geometry" />
        </mxCell>
        <mxCell id="l1CA4P1b8geDP2vsZstU-134" style="edgeStyle=none;rounded=0;orthogonalLoop=1;jettySize=auto;html=1;entryX=0.5;entryY=0;entryDx=0;entryDy=0;" edge="1" parent="1" source="l1CA4P1b8geDP2vsZstU-22" target="l1CA4P1b8geDP2vsZstU-132">
          <mxGeometry relative="1" as="geometry" />
        </mxCell>
        <mxCell id="l1CA4P1b8geDP2vsZstU-135" style="edgeStyle=none;rounded=0;orthogonalLoop=1;jettySize=auto;html=1;exitX=0;exitY=1;exitDx=0;exitDy=0;entryX=0.574;entryY=0.005;entryDx=0;entryDy=0;entryPerimeter=0;" edge="1" parent="1" source="l1CA4P1b8geDP2vsZstU-22" target="l1CA4P1b8geDP2vsZstU-133">
          <mxGeometry relative="1" as="geometry" />
        </mxCell>
        <mxCell id="l1CA4P1b8geDP2vsZstU-22" value="Dikes" style="whiteSpace=wrap;html=1;align=center;fillColor=#fff2cc;strokeColor=#d6b656;" vertex="1" parent="1">
          <mxGeometry x="-470" y="460" width="100" height="40" as="geometry" />
        </mxCell>
        <mxCell id="l1CA4P1b8geDP2vsZstU-117" style="edgeStyle=none;rounded=0;orthogonalLoop=1;jettySize=auto;html=1;exitX=0;exitY=0;exitDx=0;exitDy=0;entryX=1;entryY=0.5;entryDx=0;entryDy=0;" edge="1" parent="1" source="l1CA4P1b8geDP2vsZstU-23" target="l1CA4P1b8geDP2vsZstU-115">
          <mxGeometry relative="1" as="geometry" />
        </mxCell>
        <mxCell id="l1CA4P1b8geDP2vsZstU-118" style="edgeStyle=none;rounded=0;orthogonalLoop=1;jettySize=auto;html=1;exitX=0;exitY=0.5;exitDx=0;exitDy=0;entryX=1;entryY=0.5;entryDx=0;entryDy=0;" edge="1" parent="1" source="l1CA4P1b8geDP2vsZstU-23" target="l1CA4P1b8geDP2vsZstU-116">
          <mxGeometry relative="1" as="geometry" />
        </mxCell>
        <mxCell id="l1CA4P1b8geDP2vsZstU-23" value="Public Pollutions" style="whiteSpace=wrap;html=1;align=center;fillColor=#fff2cc;strokeColor=#d6b656;" vertex="1" parent="1">
          <mxGeometry x="-309" y="160" width="100" height="40" as="geometry" />
        </mxCell>
        <mxCell id="l1CA4P1b8geDP2vsZstU-113" style="edgeStyle=none;rounded=0;orthogonalLoop=1;jettySize=auto;html=1;exitX=0;exitY=0;exitDx=0;exitDy=0;entryX=1;entryY=0.5;entryDx=0;entryDy=0;" edge="1" parent="1" source="l1CA4P1b8geDP2vsZstU-24" target="l1CA4P1b8geDP2vsZstU-111">
          <mxGeometry relative="1" as="geometry" />
        </mxCell>
        <mxCell id="l1CA4P1b8geDP2vsZstU-114" style="edgeStyle=none;rounded=0;orthogonalLoop=1;jettySize=auto;html=1;exitX=0;exitY=0.5;exitDx=0;exitDy=0;entryX=0.957;entryY=0.323;entryDx=0;entryDy=0;entryPerimeter=0;" edge="1" parent="1" source="l1CA4P1b8geDP2vsZstU-24" target="l1CA4P1b8geDP2vsZstU-112">
          <mxGeometry relative="1" as="geometry" />
        </mxCell>
        <mxCell id="l1CA4P1b8geDP2vsZstU-24" value="Industry Pollutions" style="whiteSpace=wrap;html=1;align=center;fillColor=#fff2cc;strokeColor=#d6b656;" vertex="1" parent="1">
          <mxGeometry x="-270" y="60" width="110" height="40" as="geometry" />
        </mxCell>
        <mxCell id="l1CA4P1b8geDP2vsZstU-142" style="edgeStyle=none;rounded=0;orthogonalLoop=1;jettySize=auto;html=1;exitX=0.5;exitY=1;exitDx=0;exitDy=0;entryX=0.5;entryY=0;entryDx=0;entryDy=0;" edge="1" parent="1" source="l1CA4P1b8geDP2vsZstU-25" target="l1CA4P1b8geDP2vsZstU-140">
          <mxGeometry relative="1" as="geometry" />
        </mxCell>
        <mxCell id="l1CA4P1b8geDP2vsZstU-143" style="edgeStyle=none;rounded=0;orthogonalLoop=1;jettySize=auto;html=1;exitX=0.25;exitY=1;exitDx=0;exitDy=0;entryX=0.42;entryY=-0.038;entryDx=0;entryDy=0;entryPerimeter=0;" edge="1" parent="1" source="l1CA4P1b8geDP2vsZstU-25" target="l1CA4P1b8geDP2vsZstU-141">
          <mxGeometry relative="1" as="geometry" />
        </mxCell>
        <mxCell id="l1CA4P1b8geDP2vsZstU-25" value="Support Devices" style="whiteSpace=wrap;html=1;align=center;fillColor=#fff2cc;strokeColor=#d6b656;" vertex="1" parent="1">
          <mxGeometry x="-195" y="560" width="110" height="40" as="geometry" />
        </mxCell>
        <mxCell id="l1CA4P1b8geDP2vsZstU-30" style="edgeStyle=orthogonalEdgeStyle;rounded=0;orthogonalLoop=1;jettySize=auto;html=1;entryX=0.5;entryY=1;entryDx=0;entryDy=0;exitX=0;exitY=0;exitDx=0;exitDy=0;" edge="1" parent="1" source="l1CA4P1b8geDP2vsZstU-28" target="l1CA4P1b8geDP2vsZstU-24">
          <mxGeometry relative="1" as="geometry">
            <mxPoint x="-100" y="150" as="sourcePoint" />
          </mxGeometry>
        </mxCell>
        <mxCell id="l1CA4P1b8geDP2vsZstU-35" style="edgeStyle=orthogonalEdgeStyle;rounded=0;orthogonalLoop=1;jettySize=auto;html=1;exitX=0;exitY=0.5;exitDx=0;exitDy=0;" edge="1" parent="1" source="l1CA4P1b8geDP2vsZstU-28" target="l1CA4P1b8geDP2vsZstU-23">
          <mxGeometry relative="1" as="geometry" />
        </mxCell>
        <mxCell id="l1CA4P1b8geDP2vsZstU-40" style="edgeStyle=orthogonalEdgeStyle;rounded=0;orthogonalLoop=1;jettySize=auto;html=1;exitX=0.5;exitY=0;exitDx=0;exitDy=0;" edge="1" parent="1" source="l1CA4P1b8geDP2vsZstU-28" target="l1CA4P1b8geDP2vsZstU-36">
          <mxGeometry relative="1" as="geometry" />
        </mxCell>
        <mxCell id="l1CA4P1b8geDP2vsZstU-43" style="edgeStyle=orthogonalEdgeStyle;rounded=0;orthogonalLoop=1;jettySize=auto;html=1;exitX=0.5;exitY=1;exitDx=0;exitDy=0;" edge="1" parent="1" source="l1CA4P1b8geDP2vsZstU-28" target="l1CA4P1b8geDP2vsZstU-41">
          <mxGeometry relative="1" as="geometry" />
        </mxCell>
        <mxCell id="l1CA4P1b8geDP2vsZstU-45" style="edgeStyle=orthogonalEdgeStyle;rounded=0;orthogonalLoop=1;jettySize=auto;html=1;exitX=0;exitY=1;exitDx=0;exitDy=0;entryX=1;entryY=0.5;entryDx=0;entryDy=0;" edge="1" parent="1" source="l1CA4P1b8geDP2vsZstU-28" target="l1CA4P1b8geDP2vsZstU-44">
          <mxGeometry relative="1" as="geometry" />
        </mxCell>
        <mxCell id="l1CA4P1b8geDP2vsZstU-47" style="edgeStyle=orthogonalEdgeStyle;rounded=0;orthogonalLoop=1;jettySize=auto;html=1;exitX=1;exitY=0;exitDx=0;exitDy=0;entryX=0.25;entryY=1;entryDx=0;entryDy=0;" edge="1" parent="1" source="l1CA4P1b8geDP2vsZstU-28" target="l1CA4P1b8geDP2vsZstU-46">
          <mxGeometry relative="1" as="geometry" />
        </mxCell>
        <mxCell id="l1CA4P1b8geDP2vsZstU-64" style="edgeStyle=orthogonalEdgeStyle;rounded=0;orthogonalLoop=1;jettySize=auto;html=1;exitX=1;exitY=1;exitDx=0;exitDy=0;entryX=0.5;entryY=0;entryDx=0;entryDy=0;" edge="1" parent="1" source="l1CA4P1b8geDP2vsZstU-28" target="l1CA4P1b8geDP2vsZstU-63">
          <mxGeometry relative="1" as="geometry" />
        </mxCell>
        <mxCell id="l1CA4P1b8geDP2vsZstU-28" value="Input" style="shape=rhombus;perimeter=rhombusPerimeter;whiteSpace=wrap;html=1;align=center;fillColor=#f8cecc;strokeColor=#b85450;" vertex="1" parent="1">
          <mxGeometry x="-160" y="150" width="120" height="60" as="geometry" />
        </mxCell>
        <mxCell id="l1CA4P1b8geDP2vsZstU-57" style="edgeStyle=orthogonalEdgeStyle;rounded=0;orthogonalLoop=1;jettySize=auto;html=1;exitX=0.5;exitY=0;exitDx=0;exitDy=0;entryX=0.5;entryY=1;entryDx=0;entryDy=0;" edge="1" parent="1" source="l1CA4P1b8geDP2vsZstU-36" target="l1CA4P1b8geDP2vsZstU-56">
          <mxGeometry relative="1" as="geometry" />
        </mxCell>
        <mxCell id="l1CA4P1b8geDP2vsZstU-109" style="edgeStyle=none;rounded=0;orthogonalLoop=1;jettySize=auto;html=1;exitX=0.25;exitY=0;exitDx=0;exitDy=0;entryX=0.669;entryY=0.979;entryDx=0;entryDy=0;entryPerimeter=0;" edge="1" parent="1" source="l1CA4P1b8geDP2vsZstU-36" target="l1CA4P1b8geDP2vsZstU-107">
          <mxGeometry relative="1" as="geometry" />
        </mxCell>
        <mxCell id="l1CA4P1b8geDP2vsZstU-110" style="edgeStyle=none;rounded=0;orthogonalLoop=1;jettySize=auto;html=1;exitX=0;exitY=0.25;exitDx=0;exitDy=0;entryX=1;entryY=1;entryDx=0;entryDy=0;" edge="1" parent="1" source="l1CA4P1b8geDP2vsZstU-36" target="l1CA4P1b8geDP2vsZstU-108">
          <mxGeometry relative="1" as="geometry" />
        </mxCell>
        <mxCell id="l1CA4P1b8geDP2vsZstU-36" value="River Conditions" style="whiteSpace=wrap;html=1;align=center;fillColor=#fff2cc;strokeColor=#d6b656;" vertex="1" parent="1">
          <mxGeometry x="-150" y="30" width="100" height="40" as="geometry" />
        </mxCell>
        <mxCell id="l1CA4P1b8geDP2vsZstU-53" style="edgeStyle=orthogonalEdgeStyle;rounded=0;orthogonalLoop=1;jettySize=auto;html=1;exitX=0.5;exitY=1;exitDx=0;exitDy=0;entryX=1;entryY=0.5;entryDx=0;entryDy=0;" edge="1" parent="1" source="l1CA4P1b8geDP2vsZstU-41" target="l1CA4P1b8geDP2vsZstU-52">
          <mxGeometry relative="1" as="geometry" />
        </mxCell>
        <mxCell id="l1CA4P1b8geDP2vsZstU-121" style="edgeStyle=none;rounded=0;orthogonalLoop=1;jettySize=auto;html=1;exitX=0;exitY=1;exitDx=0;exitDy=0;entryX=1;entryY=0;entryDx=0;entryDy=0;" edge="1" parent="1" source="l1CA4P1b8geDP2vsZstU-41" target="l1CA4P1b8geDP2vsZstU-119">
          <mxGeometry relative="1" as="geometry" />
        </mxCell>
        <mxCell id="l1CA4P1b8geDP2vsZstU-122" style="edgeStyle=none;rounded=0;orthogonalLoop=1;jettySize=auto;html=1;exitX=0.25;exitY=1;exitDx=0;exitDy=0;" edge="1" parent="1" source="l1CA4P1b8geDP2vsZstU-41" target="l1CA4P1b8geDP2vsZstU-120">
          <mxGeometry relative="1" as="geometry" />
        </mxCell>
        <mxCell id="l1CA4P1b8geDP2vsZstU-41" value="Dike Conditions" style="whiteSpace=wrap;html=1;align=center;fillColor=#fff2cc;strokeColor=#d6b656;" vertex="1" parent="1">
          <mxGeometry x="-200" y="300" width="100" height="40" as="geometry" />
        </mxCell>
        <mxCell id="l1CA4P1b8geDP2vsZstU-50" style="edgeStyle=orthogonalEdgeStyle;rounded=0;orthogonalLoop=1;jettySize=auto;html=1;exitX=0;exitY=0.5;exitDx=0;exitDy=0;entryX=1;entryY=0.5;entryDx=0;entryDy=0;" edge="1" parent="1" source="l1CA4P1b8geDP2vsZstU-44" target="l1CA4P1b8geDP2vsZstU-49">
          <mxGeometry relative="1" as="geometry" />
        </mxCell>
        <mxCell id="l1CA4P1b8geDP2vsZstU-130" style="edgeStyle=none;rounded=0;orthogonalLoop=1;jettySize=auto;html=1;exitX=0.25;exitY=1;exitDx=0;exitDy=0;entryX=1;entryY=0.5;entryDx=0;entryDy=0;" edge="1" parent="1" source="l1CA4P1b8geDP2vsZstU-44" target="l1CA4P1b8geDP2vsZstU-129">
          <mxGeometry relative="1" as="geometry" />
        </mxCell>
        <mxCell id="l1CA4P1b8geDP2vsZstU-131" style="edgeStyle=none;rounded=0;orthogonalLoop=1;jettySize=auto;html=1;exitX=0;exitY=0.75;exitDx=0;exitDy=0;entryX=1;entryY=0;entryDx=0;entryDy=0;" edge="1" parent="1" source="l1CA4P1b8geDP2vsZstU-44" target="l1CA4P1b8geDP2vsZstU-128">
          <mxGeometry relative="1" as="geometry" />
        </mxCell>
        <mxCell id="l1CA4P1b8geDP2vsZstU-44" value="Drain Conditions" style="whiteSpace=wrap;html=1;align=center;fillColor=#fff2cc;strokeColor=#d6b656;" vertex="1" parent="1">
          <mxGeometry x="-290" y="240" width="100" height="40" as="geometry" />
        </mxCell>
        <mxCell id="l1CA4P1b8geDP2vsZstU-60" style="edgeStyle=orthogonalEdgeStyle;rounded=0;orthogonalLoop=1;jettySize=auto;html=1;exitX=0.5;exitY=0;exitDx=0;exitDy=0;entryX=0.5;entryY=1;entryDx=0;entryDy=0;" edge="1" parent="1" source="l1CA4P1b8geDP2vsZstU-46" target="l1CA4P1b8geDP2vsZstU-59">
          <mxGeometry relative="1" as="geometry" />
        </mxCell>
        <mxCell id="l1CA4P1b8geDP2vsZstU-105" style="edgeStyle=none;rounded=0;orthogonalLoop=1;jettySize=auto;html=1;exitX=0.75;exitY=0;exitDx=0;exitDy=0;entryX=0;entryY=1;entryDx=0;entryDy=0;" edge="1" parent="1" source="l1CA4P1b8geDP2vsZstU-46" target="l1CA4P1b8geDP2vsZstU-103">
          <mxGeometry relative="1" as="geometry" />
        </mxCell>
        <mxCell id="l1CA4P1b8geDP2vsZstU-106" style="edgeStyle=none;rounded=0;orthogonalLoop=1;jettySize=auto;html=1;exitX=1;exitY=0.5;exitDx=0;exitDy=0;" edge="1" parent="1" source="l1CA4P1b8geDP2vsZstU-46" target="l1CA4P1b8geDP2vsZstU-104">
          <mxGeometry relative="1" as="geometry" />
        </mxCell>
        <mxCell id="l1CA4P1b8geDP2vsZstU-46" value="Creek Conditions" style="whiteSpace=wrap;html=1;align=center;fillColor=#fff2cc;strokeColor=#d6b656;" vertex="1" parent="1">
          <mxGeometry x="-30" y="30" width="100" height="40" as="geometry" />
        </mxCell>
        <mxCell id="l1CA4P1b8geDP2vsZstU-51" style="edgeStyle=orthogonalEdgeStyle;rounded=0;orthogonalLoop=1;jettySize=auto;html=1;exitX=0;exitY=0.5;exitDx=0;exitDy=0;entryX=0.5;entryY=0;entryDx=0;entryDy=0;" edge="1" parent="1" source="l1CA4P1b8geDP2vsZstU-49" target="l1CA4P1b8geDP2vsZstU-8">
          <mxGeometry relative="1" as="geometry" />
        </mxCell>
        <mxCell id="l1CA4P1b8geDP2vsZstU-49" value="Happened In" style="shape=rhombus;perimeter=rhombusPerimeter;whiteSpace=wrap;html=1;align=center;fillColor=#f8cecc;strokeColor=#b85450;" vertex="1" parent="1">
          <mxGeometry x="-500" y="240" width="120" height="60" as="geometry" />
        </mxCell>
        <mxCell id="l1CA4P1b8geDP2vsZstU-54" style="edgeStyle=orthogonalEdgeStyle;rounded=0;orthogonalLoop=1;jettySize=auto;html=1;exitX=0;exitY=0.5;exitDx=0;exitDy=0;entryX=0.5;entryY=0;entryDx=0;entryDy=0;" edge="1" parent="1" source="l1CA4P1b8geDP2vsZstU-52" target="l1CA4P1b8geDP2vsZstU-22">
          <mxGeometry relative="1" as="geometry" />
        </mxCell>
        <mxCell id="l1CA4P1b8geDP2vsZstU-52" value="Happened In" style="shape=rhombus;perimeter=rhombusPerimeter;whiteSpace=wrap;html=1;align=center;fillColor=#f8cecc;strokeColor=#b85450;" vertex="1" parent="1">
          <mxGeometry x="-380" y="410" width="120" height="60" as="geometry" />
        </mxCell>
        <mxCell id="l1CA4P1b8geDP2vsZstU-58" style="edgeStyle=orthogonalEdgeStyle;rounded=0;orthogonalLoop=1;jettySize=auto;html=1;exitX=0.5;exitY=0;exitDx=0;exitDy=0;entryX=1;entryY=0.5;entryDx=0;entryDy=0;" edge="1" parent="1" source="l1CA4P1b8geDP2vsZstU-56" target="l1CA4P1b8geDP2vsZstU-6">
          <mxGeometry relative="1" as="geometry" />
        </mxCell>
        <mxCell id="l1CA4P1b8geDP2vsZstU-56" value="Happened In" style="shape=rhombus;perimeter=rhombusPerimeter;whiteSpace=wrap;html=1;align=center;fillColor=#f8cecc;strokeColor=#b85450;" vertex="1" parent="1">
          <mxGeometry x="-190" y="-150" width="120" height="60" as="geometry" />
        </mxCell>
        <mxCell id="l1CA4P1b8geDP2vsZstU-61" style="edgeStyle=orthogonalEdgeStyle;rounded=0;orthogonalLoop=1;jettySize=auto;html=1;exitX=0.5;exitY=0;exitDx=0;exitDy=0;entryX=0.5;entryY=1;entryDx=0;entryDy=0;" edge="1" parent="1" source="l1CA4P1b8geDP2vsZstU-59" target="l1CA4P1b8geDP2vsZstU-7">
          <mxGeometry relative="1" as="geometry" />
        </mxCell>
        <mxCell id="l1CA4P1b8geDP2vsZstU-59" value="Happened In" style="shape=rhombus;perimeter=rhombusPerimeter;whiteSpace=wrap;html=1;align=center;fillColor=#f8cecc;strokeColor=#b85450;" vertex="1" parent="1">
          <mxGeometry x="-10" y="-100" width="120" height="60" as="geometry" />
        </mxCell>
        <mxCell id="l1CA4P1b8geDP2vsZstU-68" style="edgeStyle=orthogonalEdgeStyle;rounded=0;orthogonalLoop=1;jettySize=auto;html=1;exitX=0;exitY=0.75;exitDx=0;exitDy=0;entryX=0.5;entryY=0;entryDx=0;entryDy=0;" edge="1" parent="1" source="l1CA4P1b8geDP2vsZstU-63" target="l1CA4P1b8geDP2vsZstU-65">
          <mxGeometry relative="1" as="geometry" />
        </mxCell>
        <mxCell id="l1CA4P1b8geDP2vsZstU-125" style="edgeStyle=none;rounded=0;orthogonalLoop=1;jettySize=auto;html=1;exitX=0.25;exitY=1;exitDx=0;exitDy=0;entryX=0.5;entryY=0;entryDx=0;entryDy=0;" edge="1" parent="1" source="l1CA4P1b8geDP2vsZstU-63" target="l1CA4P1b8geDP2vsZstU-123">
          <mxGeometry relative="1" as="geometry" />
        </mxCell>
        <mxCell id="l1CA4P1b8geDP2vsZstU-126" style="edgeStyle=none;rounded=0;orthogonalLoop=1;jettySize=auto;html=1;exitX=0.75;exitY=1;exitDx=0;exitDy=0;entryX=0.576;entryY=0.03;entryDx=0;entryDy=0;entryPerimeter=0;" edge="1" parent="1" source="l1CA4P1b8geDP2vsZstU-63" target="l1CA4P1b8geDP2vsZstU-124">
          <mxGeometry relative="1" as="geometry" />
        </mxCell>
        <mxCell id="l1CA4P1b8geDP2vsZstU-63" value="Support&lt;br&gt;Device&lt;br&gt;Conditions" style="whiteSpace=wrap;html=1;align=center;fillColor=#fff2cc;strokeColor=#d6b656;" vertex="1" parent="1">
          <mxGeometry x="-80" y="320" width="110" height="50" as="geometry" />
        </mxCell>
        <mxCell id="l1CA4P1b8geDP2vsZstU-69" style="edgeStyle=orthogonalEdgeStyle;rounded=0;orthogonalLoop=1;jettySize=auto;html=1;exitX=0.5;exitY=1;exitDx=0;exitDy=0;entryX=0.5;entryY=0;entryDx=0;entryDy=0;" edge="1" parent="1" source="l1CA4P1b8geDP2vsZstU-65" target="l1CA4P1b8geDP2vsZstU-25">
          <mxGeometry relative="1" as="geometry" />
        </mxCell>
        <mxCell id="l1CA4P1b8geDP2vsZstU-65" value="Comprise" style="shape=rhombus;perimeter=rhombusPerimeter;whiteSpace=wrap;html=1;align=center;fillColor=#f8cecc;strokeColor=#b85450;" vertex="1" parent="1">
          <mxGeometry x="-200" y="460" width="120" height="60" as="geometry" />
        </mxCell>
        <mxCell id="l1CA4P1b8geDP2vsZstU-70" value="&lt;span style=&quot;border-bottom: 1px dotted&quot;&gt;Email&lt;/span&gt;" style="ellipse;whiteSpace=wrap;html=1;align=center;fillColor=#d5e8d4;strokeColor=#82b366;" vertex="1" parent="1">
          <mxGeometry x="350" y="230" width="100" height="40" as="geometry" />
        </mxCell>
        <mxCell id="l1CA4P1b8geDP2vsZstU-71" value="&lt;span style=&quot;border-bottom: 1px dotted&quot;&gt;Password&lt;/span&gt;" style="ellipse;whiteSpace=wrap;html=1;align=center;fillColor=#d5e8d4;strokeColor=#82b366;" vertex="1" parent="1">
          <mxGeometry x="400" y="290" width="100" height="40" as="geometry" />
        </mxCell>
        <mxCell id="l1CA4P1b8geDP2vsZstU-76" value="username" style="ellipse;whiteSpace=wrap;html=1;align=center;fillColor=#d5e8d4;strokeColor=#82b366;" vertex="1" parent="1">
          <mxGeometry x="360" y="350" width="100" height="40" as="geometry" />
        </mxCell>
        <mxCell id="l1CA4P1b8geDP2vsZstU-79" value="Name" style="ellipse;whiteSpace=wrap;html=1;align=center;fillColor=#d5e8d4;strokeColor=#82b366;" vertex="1" parent="1">
          <mxGeometry x="40" y="500" width="100" height="40" as="geometry" />
        </mxCell>
        <mxCell id="l1CA4P1b8geDP2vsZstU-80" value="Cell Phone" style="ellipse;whiteSpace=wrap;html=1;align=center;fillColor=#d5e8d4;strokeColor=#82b366;" vertex="1" parent="1">
          <mxGeometry x="130" y="530" width="100" height="40" as="geometry" />
        </mxCell>
        <mxCell id="l1CA4P1b8geDP2vsZstU-81" value="Image Profile" style="ellipse;whiteSpace=wrap;html=1;align=center;fillColor=#d5e8d4;strokeColor=#82b366;" vertex="1" parent="1">
          <mxGeometry x="170" y="470" width="100" height="40" as="geometry" />
        </mxCell>
        <mxCell id="l1CA4P1b8geDP2vsZstU-92" value="&lt;span style=&quot;border-bottom: 1px dotted&quot;&gt;Name&lt;/span&gt;" style="ellipse;whiteSpace=wrap;html=1;align=center;fillColor=#d5e8d4;strokeColor=#82b366;" vertex="1" parent="1">
          <mxGeometry x="200" y="130" width="100" height="40" as="geometry" />
        </mxCell>
        <mxCell id="l1CA4P1b8geDP2vsZstU-93" value="&lt;span style=&quot;border-bottom: 1px dotted&quot;&gt;Cell Phone&lt;/span&gt;" style="ellipse;whiteSpace=wrap;html=1;align=center;fillColor=#d5e8d4;strokeColor=#82b366;" vertex="1" parent="1">
          <mxGeometry x="250" y="200" width="100" height="40" as="geometry" />
        </mxCell>
        <mxCell id="l1CA4P1b8geDP2vsZstU-94" value="Image Profile" style="ellipse;whiteSpace=wrap;html=1;align=center;fillColor=#d5e8d4;strokeColor=#82b366;" vertex="1" parent="1">
          <mxGeometry x="300" y="150" width="100" height="40" as="geometry" />
        </mxCell>
        <mxCell id="l1CA4P1b8geDP2vsZstU-98" value="&lt;span style=&quot;border-bottom: 1px dotted&quot;&gt;Name&lt;/span&gt;" style="ellipse;whiteSpace=wrap;html=1;align=center;fillColor=#d5e8d4;strokeColor=#82b366;" vertex="1" parent="1">
          <mxGeometry x="230" y="-40" width="100" height="40" as="geometry" />
        </mxCell>
        <mxCell id="l1CA4P1b8geDP2vsZstU-99" value="&lt;span style=&quot;border-bottom: 1px dotted&quot;&gt;Status&lt;/span&gt;" style="ellipse;whiteSpace=wrap;html=1;align=center;fillColor=#d5e8d4;strokeColor=#82b366;" vertex="1" parent="1">
          <mxGeometry x="310" y="4" width="100" height="40" as="geometry" />
        </mxCell>
        <mxCell id="l1CA4P1b8geDP2vsZstU-103" value="&lt;span style=&quot;border-bottom: 1px dotted&quot;&gt;Description&lt;/span&gt;" style="ellipse;whiteSpace=wrap;html=1;align=center;fillColor=#d5e8d4;strokeColor=#82b366;" vertex="1" parent="1">
          <mxGeometry x="90" y="-50" width="100" height="40" as="geometry" />
        </mxCell>
        <mxCell id="l1CA4P1b8geDP2vsZstU-104" value="&lt;span style=&quot;border-bottom: 1px dotted&quot;&gt;Long/Lat&lt;/span&gt;" style="ellipse;whiteSpace=wrap;html=1;align=center;fillColor=#d5e8d4;strokeColor=#82b366;" vertex="1" parent="1">
          <mxGeometry x="100" y="10" width="100" height="40" as="geometry" />
        </mxCell>
        <mxCell id="l1CA4P1b8geDP2vsZstU-107" value="&lt;span style=&quot;border-bottom: 1px dotted&quot;&gt;Description&lt;/span&gt;" style="ellipse;whiteSpace=wrap;html=1;align=center;fillColor=#d5e8d4;strokeColor=#82b366;" vertex="1" parent="1">
          <mxGeometry x="-250" y="-76" width="100" height="40" as="geometry" />
        </mxCell>
        <mxCell id="l1CA4P1b8geDP2vsZstU-108" value="&lt;span style=&quot;border-bottom: 1px dotted&quot;&gt;Long/Lat&lt;/span&gt;" style="ellipse;whiteSpace=wrap;html=1;align=center;fillColor=#d5e8d4;strokeColor=#82b366;" vertex="1" parent="1">
          <mxGeometry x="-320" y="-30" width="100" height="40" as="geometry" />
        </mxCell>
        <mxCell id="l1CA4P1b8geDP2vsZstU-111" value="&lt;span style=&quot;border-bottom: 1px dotted&quot;&gt;Description&lt;/span&gt;" style="ellipse;whiteSpace=wrap;html=1;align=center;fillColor=#d5e8d4;strokeColor=#82b366;" vertex="1" parent="1">
          <mxGeometry x="-409" y="14" width="100" height="40" as="geometry" />
        </mxCell>
        <mxCell id="l1CA4P1b8geDP2vsZstU-112" value="&lt;span style=&quot;border-bottom: 1px dotted&quot;&gt;Long/Lat&lt;/span&gt;" style="ellipse;whiteSpace=wrap;html=1;align=center;fillColor=#d5e8d4;strokeColor=#82b366;" vertex="1" parent="1">
          <mxGeometry x="-420" y="70" width="100" height="40" as="geometry" />
        </mxCell>
        <mxCell id="l1CA4P1b8geDP2vsZstU-115" value="&lt;span style=&quot;border-bottom: 1px dotted&quot;&gt;Description&lt;/span&gt;" style="ellipse;whiteSpace=wrap;html=1;align=center;fillColor=#d5e8d4;strokeColor=#82b366;" vertex="1" parent="1">
          <mxGeometry x="-460" y="130" width="100" height="40" as="geometry" />
        </mxCell>
        <mxCell id="l1CA4P1b8geDP2vsZstU-116" value="&lt;span style=&quot;border-bottom: 1px dotted&quot;&gt;Long/Lat&lt;/span&gt;" style="ellipse;whiteSpace=wrap;html=1;align=center;fillColor=#d5e8d4;strokeColor=#82b366;" vertex="1" parent="1">
          <mxGeometry x="-450" y="180" width="100" height="40" as="geometry" />
        </mxCell>
        <mxCell id="l1CA4P1b8geDP2vsZstU-119" value="&lt;span style=&quot;border-bottom: 1px dotted&quot;&gt;Description&lt;/span&gt;" style="ellipse;whiteSpace=wrap;html=1;align=center;fillColor=#d5e8d4;strokeColor=#82b366;" vertex="1" parent="1">
          <mxGeometry x="-340" y="350" width="100" height="40" as="geometry" />
        </mxCell>
        <mxCell id="l1CA4P1b8geDP2vsZstU-120" value="&lt;span style=&quot;border-bottom: 1px dotted&quot;&gt;Long/Lat&lt;/span&gt;" style="ellipse;whiteSpace=wrap;html=1;align=center;fillColor=#d5e8d4;strokeColor=#82b366;" vertex="1" parent="1">
          <mxGeometry x="-260" y="380" width="100" height="40" as="geometry" />
        </mxCell>
        <mxCell id="l1CA4P1b8geDP2vsZstU-123" value="&lt;span style=&quot;border-bottom: 1px dotted&quot;&gt;Description&lt;/span&gt;" style="ellipse;whiteSpace=wrap;html=1;align=center;fillColor=#d5e8d4;strokeColor=#82b366;" vertex="1" parent="1">
          <mxGeometry x="-120" y="410" width="100" height="40" as="geometry" />
        </mxCell>
        <mxCell id="l1CA4P1b8geDP2vsZstU-124" value="&lt;span style=&quot;border-bottom: 1px dotted&quot;&gt;Long/Lat&lt;/span&gt;" style="ellipse;whiteSpace=wrap;html=1;align=center;fillColor=#d5e8d4;strokeColor=#82b366;" vertex="1" parent="1">
          <mxGeometry x="-60" y="460" width="100" height="40" as="geometry" />
        </mxCell>
        <mxCell id="l1CA4P1b8geDP2vsZstU-128" value="&lt;span style=&quot;border-bottom: 1px dotted&quot;&gt;Description&lt;/span&gt;" style="ellipse;whiteSpace=wrap;html=1;align=center;fillColor=#d5e8d4;strokeColor=#82b366;" vertex="1" parent="1">
          <mxGeometry x="-420" y="290" width="100" height="40" as="geometry" />
        </mxCell>
        <mxCell id="l1CA4P1b8geDP2vsZstU-129" value="&lt;span style=&quot;border-bottom: 1px dotted&quot;&gt;Long/Lat&lt;/span&gt;" style="ellipse;whiteSpace=wrap;html=1;align=center;fillColor=#d5e8d4;strokeColor=#82b366;" vertex="1" parent="1">
          <mxGeometry x="-460" y="340" width="100" height="40" as="geometry" />
        </mxCell>
        <mxCell id="l1CA4P1b8geDP2vsZstU-132" value="&lt;span style=&quot;border-bottom: 1px dotted&quot;&gt;Name&lt;/span&gt;" style="ellipse;whiteSpace=wrap;html=1;align=center;fillColor=#d5e8d4;strokeColor=#82b366;" vertex="1" parent="1">
          <mxGeometry x="-475" y="530" width="100" height="40" as="geometry" />
        </mxCell>
        <mxCell id="l1CA4P1b8geDP2vsZstU-133" value="&lt;span style=&quot;border-bottom: 1px dotted&quot;&gt;Geojson&lt;/span&gt;" style="ellipse;whiteSpace=wrap;html=1;align=center;fillColor=#d5e8d4;strokeColor=#82b366;" vertex="1" parent="1">
          <mxGeometry x="-580" y="520" width="100" height="40" as="geometry" />
        </mxCell>
        <mxCell id="l1CA4P1b8geDP2vsZstU-136" value="&lt;span style=&quot;border-bottom: 1px dotted&quot;&gt;Geojson&lt;/span&gt;" style="ellipse;whiteSpace=wrap;html=1;align=center;fillColor=#d5e8d4;strokeColor=#82b366;" vertex="1" parent="1">
          <mxGeometry x="-680" y="350" width="100" height="40" as="geometry" />
        </mxCell>
        <mxCell id="l1CA4P1b8geDP2vsZstU-137" value="&lt;span style=&quot;border-bottom: 1px dotted&quot;&gt;Name&lt;/span&gt;" style="ellipse;whiteSpace=wrap;html=1;align=center;fillColor=#d5e8d4;strokeColor=#82b366;" vertex="1" parent="1">
          <mxGeometry x="-580" y="380" width="100" height="40" as="geometry" />
        </mxCell>
        <mxCell id="l1CA4P1b8geDP2vsZstU-140" value="&lt;span style=&quot;border-bottom: 1px dotted&quot;&gt;Name&lt;/span&gt;" style="ellipse;whiteSpace=wrap;html=1;align=center;fillColor=#d5e8d4;strokeColor=#82b366;" vertex="1" parent="1">
          <mxGeometry x="-180" y="640" width="100" height="40" as="geometry" />
        </mxCell>
        <mxCell id="l1CA4P1b8geDP2vsZstU-141" value="&lt;span style=&quot;border-bottom: 1px dotted&quot;&gt;Image&lt;/span&gt;" style="ellipse;whiteSpace=wrap;html=1;align=center;fillColor=#d5e8d4;strokeColor=#82b366;" vertex="1" parent="1">
          <mxGeometry x="-305" y="640" width="100" height="40" as="geometry" />
        </mxCell>
        <mxCell id="l1CA4P1b8geDP2vsZstU-144" value="&lt;span style=&quot;border-bottom: 1px dotted&quot;&gt;Name&lt;/span&gt;" style="ellipse;whiteSpace=wrap;html=1;align=center;fillColor=#d5e8d4;strokeColor=#82b366;" vertex="1" parent="1">
          <mxGeometry x="-420" y="-200" width="100" height="40" as="geometry" />
        </mxCell>
        <mxCell id="l1CA4P1b8geDP2vsZstU-146" value="&lt;span style=&quot;border-bottom: 1px dotted&quot;&gt;Geojson&lt;/span&gt;" style="ellipse;whiteSpace=wrap;html=1;align=center;fillColor=#d5e8d4;strokeColor=#82b366;" vertex="1" parent="1">
          <mxGeometry x="-340" y="-130" width="100" height="40" as="geometry" />
        </mxCell>
        <mxCell id="l1CA4P1b8geDP2vsZstU-149" value="&lt;span style=&quot;border-bottom: 1px dotted&quot;&gt;Name&lt;/span&gt;" style="ellipse;whiteSpace=wrap;html=1;align=center;fillColor=#d5e8d4;strokeColor=#82b366;" vertex="1" parent="1">
          <mxGeometry x="90" y="-240" width="100" height="40" as="geometry" />
        </mxCell>
        <mxCell id="l1CA4P1b8geDP2vsZstU-150" value="&lt;span style=&quot;border-bottom: 1px dotted&quot;&gt;Geojson&lt;/span&gt;" style="ellipse;whiteSpace=wrap;html=1;align=center;fillColor=#d5e8d4;strokeColor=#82b366;" vertex="1" parent="1">
          <mxGeometry x="90" y="-180" width="100" height="40" as="geometry" />
        </mxCell>
      </root>
    </mxGraphModel>
  </diagram>
</mxfile>
